<?xml version="1.0" encoding="UTF-8" standalone="no"?>
<!-- Uploaded to: SVG Repo, www.svgrepo.com, Generator: SVG Repo Mixer Tools -->

<svg
   fill="#000000"
   height="400"
   width="800"
   version="1.1"
   id="Capa_1"
   viewBox="0 0 469.868 234.934"
   xml:space="preserve"
   sodipodi:docname="cooking_boss.svg"
   inkscape:version="1.3.2 (091e20ef0f, 2023-11-25)"
   xmlns:inkscape="http://www.inkscape.org/namespaces/inkscape"
   xmlns:sodipodi="http://sodipodi.sourceforge.net/DTD/sodipodi-0.dtd"
   xmlns="http://www.w3.org/2000/svg"
   xmlns:svg="http://www.w3.org/2000/svg"><defs
   id="defs2"><rect
     x="-130.7932"
     y="8.9466254"
     width="1145.3567"
     height="529.77496"
     id="rect5" /><rect
     x="-103.27963"
     y="-45.266691"
     width="1269.7795"
     height="597.43517"
     id="rect1" /><rect
     x="264.98425"
     y="384.21869"
     width="1159.3032"
     height="297.06427"
     id="rect4" /><rect
     x="421.71609"
     y="408.55914"
     width="65.060593"
     height="20.090412"
     id="rect3" /><rect
     x="238.23767"
     y="408.55493"
     width="422.57193"
     height="95.315414"
     id="rect2" /></defs><sodipodi:namedview
   id="namedview2"
   pagecolor="#ffffff"
   bordercolor="#000000"
   borderopacity="0.25"
   inkscape:showpageshadow="2"
   inkscape:pageopacity="0.0"
   inkscape:pagecheckerboard="0"
   inkscape:deskcolor="#d1d1d1"
   inkscape:zoom="1"
   inkscape:cx="405"
   inkscape:cy="198.5"
   inkscape:window-width="1260"
   inkscape:window-height="917"
   inkscape:window-x="20"
   inkscape:window-y="20"
   inkscape:window-maximized="0"
   inkscape:current-layer="g1" />

<text
   xml:space="preserve"
   transform="scale(0.587335)"
   id="text2"
   style="white-space:pre;shape-inside:url(#rect2);display:inline;fill:#000000;fill-opacity:1;stroke:#000000;stroke-width:15;stroke-dasharray:none;stroke-opacity:1" /><text
   xml:space="preserve"
   transform="scale(0.587335)"
   id="text3"
   style="white-space:pre;shape-inside:url(#rect3);display:inline;fill:#000000;fill-opacity:1;stroke:#000000;stroke-width:15;stroke-dasharray:none;stroke-opacity:1" /><g
   id="g1"
   transform="matrix(0.52323871,0,0,0.48058213,43.200087,-32.296159)"><text
     xml:space="preserve"
     transform="matrix(1.1224991,0,0,1.2221324,-82.562865,67.202164)"
     id="text1"
     style="white-space:pre;shape-inside:url(#rect1);display:inline;fill:#8839ef" /><text
     xml:space="preserve"
     transform="matrix(1.1224991,0,0,1.2221324,-82.562865,67.202164)"
     id="text5"
     style="letter-spacing:4.51px;white-space:pre;shape-inside:url(#rect5);display:inline;fill:#8839ef" /><g
     id="g11"
     transform="matrix(0.94892137,0,0,0.94892137,11.982097,15.917566)"><g
       id="g10"><g
         id="g9"
         transform="translate(4.3583224,30.664265)"><g
           id="g2"
           style="fill:#000000;fill-opacity:1;stroke:#000000;stroke-width:8.81003;stroke-dasharray:none;stroke-opacity:1"
           transform="matrix(0.3348633,-0.26015834,0.2017837,0.39529656,-96.730939,200.8329)">
	<path
   d="M 428.705,53.271 C 402.118,26.684 366.768,12.042 329.168,12.042 c -35.151,0 -68.336,12.798 -94.233,36.188 -25.897,-23.391 -59.083,-36.188 -94.233,-36.188 -37.6,0 -72.95,14.642 -99.537,41.229 -54.885,54.885 -54.885,144.189 0,199.074 l 16.893,16.893 v 181.089 c 0,4.142 3.358,7.5 7.5,7.5 h 338.755 c 4.142,0 7.5,-3.358 7.5,-7.5 V 269.238 l 16.893,-16.893 C 483.589,197.46 483.589,108.156 428.705,53.271 Z M 73.057,442.827 v -15 h 323.755 v 15 z m 345.041,-201.089 -19.09,19.09 c -1.407,1.406 -2.197,3.314 -2.197,5.303 V 412.826 H 73.057 V 266.131 c 0,-1.989 -0.79,-3.897 -2.197,-5.303 L 51.77,241.738 C 2.734,192.702 2.734,112.914 51.77,63.877 75.524,40.123 107.107,27.041 140.701,27.041 c 31.081,0 60.435,11.206 83.466,31.694 l -36.963,36.962 c -2.929,2.929 -2.929,7.678 0,10.606 1.464,1.465 3.384,2.197 5.303,2.197 1.919,0 3.839,-0.732 5.303,-2.197 L 239.883,64.23 c 0.061,-0.061 0.112,-0.126 0.17,-0.188 0.06,-0.057 0.124,-0.107 0.183,-0.166 23.754,-23.754 55.337,-36.836 88.93,-36.836 33.594,0 65.176,13.082 88.931,36.836 49.037,49.038 49.037,128.826 0.001,177.862 z"
   id="path1"
   style="fill:#000000;fill-opacity:1;stroke:#000000;stroke-width:8.81003;stroke-dasharray:none;stroke-opacity:1" />
	<path
   d="m 374.4499,268.28515 h -43.90862 l 27.27064,-90.24188 c 1.58789,-5.25456 -0.20694,-11.29415 -4.0105,-13.48837 -3.80357,-2.19421 -8.17324,0.28734 -9.76112,5.54191 l -29.67237,98.18834 h -71.12454 v -94.21511 c 0,-5.69451 -3.34093,-10.31116 -7.46187,-10.31116 -4.12094,0 -7.46187,4.61665 -7.46187,10.31116 v 94.21511 h -71.12454 l -29.67237,-98.18834 c -1.58789,-5.25594 -5.95855,-7.73337 -9.76112,-5.54191 -3.80257,2.19422 -5.59839,8.23381 -4.01051,13.48837 l 27.27065,90.24188 H 97.112145 c -4.120942,0 -7.461869,4.61665 -7.461869,10.31116 0,5.69451 3.340927,10.31115 7.461869,10.31115 H 374.4499 c 4.12094,0 7.46187,-4.61664 7.46187,-10.31115 0,-5.69451 -3.34093,-10.31116 -7.46187,-10.31116 z"
   id="path2"
   style="fill:#000000;fill-opacity:1;stroke:#000000;stroke-width:10.3037;stroke-dasharray:none;stroke-opacity:1" />
</g><text
           xml:space="preserve"
           transform="matrix(0.84508176,0,0,1.0303375,-178.13465,-121.95131)"
           id="text4"
           style="font-size:160px;letter-spacing:-12.7471px;white-space:pre;shape-inside:url(#rect4);display:inline;fill:#000000;fill-opacity:1;stroke:#000000;stroke-width:2;stroke-dasharray:none;stroke-opacity:1"><tspan
             x="264.98438"
             y="525.78125"
             id="tspan2"><tspan
               style="font-family:Otto;-inkscape-font-specification:Otto"
               id="tspan1">CookingChef</tspan></tspan></text><rect
           style="fill:#000000;stroke-width:6.86561"
           id="rect7"
           width="112.82045"
           height="30.17655"
           x="-1061.4174"
           y="893.19843"
           transform="matrix(0.78528205,-0.6191382,0.94222303,-0.33498621,0,0)" /><path
           style="fill:#000000;stroke-width:1.43137"
           id="path8"
           d="m 103.03812,290.98978 c 0.0407,-0.0583 0.0748,-0.12277 0.12209,-0.17462 0.26338,-0.28835 0.62207,-0.4838 0.94707,-0.67008 0.49257,-0.28235 0.51912,-0.28673 1.03113,-0.54412 0.70065,-0.31259 1.44075,-0.52808 2.08983,-0.96558 0.0851,-0.0573 0.16415,-0.12501 0.24623,-0.18753 0.2811,-0.23379 0.51185,-0.53016 0.78282,-0.77623 0.14389,-0.13068 0.22677,-0.18033 0.38434,-0.28951 0.24496,-0.14143 0.52919,-0.21171 0.73718,-0.42174 0.11047,-0.11157 0.25863,-0.3342 0.34759,-0.46055 0.0567,-0.0863 0.10693,-0.17818 0.1701,-0.25919 0.33306,-0.42772 0.91823,-0.75993 1.34574,-1.07001 0.64859,-0.48565 1.24006,-1.0611 1.90752,-1.51788 0.17186,-0.11756 0.35221,-0.21979 0.52832,-0.32969 0.7345,-0.45812 1.53716,-0.75851 2.30089,-1.14896 0.55099,-0.28168 0.62172,-0.34014 1.15073,-0.66714 0.51964,-0.3302 1.0068,-0.71465 1.5043,-1.08151 0.43911,-0.3238 0.88542,-0.63414 1.32155,-0.96288 0.72877,-0.54152 1.41171,-1.153 2.02464,-1.84373 0.59034,-0.71039 1.13974,-1.45698 1.66449,-2.22562 0.36638,-0.55811 0.72985,-1.12389 1.1806,-1.60593 0.27076,-0.3411 0.62436,-0.57843 0.96953,-0.81945 0.22696,-0.15684 0.44471,-0.32863 0.67126,-0.48554 0.31314,-0.2169 -0.10913,0.10167 0.18248,-0.12221 0.0971,-0.0896 0.048,-0.0592 0.1412,-0.10204 0,0 -8.63108,-5.94524 -8.63108,-5.94524 v 0 c -0.1106,0.11708 -0.0573,0.0645 -0.15818,0.15913 -0.20132,0.21665 -0.35727,0.48488 -0.60525,0.64863 -0.41443,0.32132 -0.86777,0.61026 -1.12773,1.10637 -0.33866,0.59284 -0.6368,1.21006 -0.95972,1.81306 -0.11939,0.19311 -0.33074,0.54089 -0.45891,0.72644 -0.33973,0.49186 -0.74721,0.91857 -1.16359,1.33232 -0.56977,0.62684 -1.12951,1.2683 -1.7758,1.80456 -0.85352,0.70995 -1.70082,1.43383 -2.608,2.06184 -0.16856,0.10497 -0.33338,0.21742 -0.50567,0.31491 -0.95645,0.54119 -1.98448,0.92543 -2.92823,1.4962 -1.81154,1.04501 0.69563,-0.39208 -1.15173,0.63632 -0.56551,0.31483 -1.10762,0.67535 -1.64801,1.03768 -0.63708,0.42828 -1.29096,0.83815 -1.84479,1.39328 -0.31965,0.25464 -0.69524,0.42496 -0.9791,0.73667 -0.39815,0.35163 -0.777292,0.7259 -1.16015,1.09669 -0.123318,0.11292 -0.241563,0.23239 -0.367941,0.34115 -0.427302,0.36779 -0.900457,0.67088 -1.393622,0.92064 -0.181545,0.0818 -0.361111,0.16879 -0.544687,0.24496 -0.439745,0.18252 -0.660341,0.24875 -1.111199,0.3884 -0.284792,0.0883 -0.56709,0.18871 -0.856919,0.25473 -0.09043,0.0207 -0.183265,0.026 -0.274884,0.0389 z" /><path
           style="fill:#000000;stroke-width:1.43137"
           id="path9"
           d="m 19.921103,355.85635 c 2.625497,-1.21929 5.447321,-1.72384 8.234425,-2.28924 2.592269,-0.39254 5.18224,-0.89007 7.467096,-2.33304 1.257505,-1.00333 2.540819,-2.04532 3.568561,-3.3317 0.856382,-1.36514 1.250343,-2.97578 1.694812,-4.53591 0.305031,-1.34685 0.613031,-2.73008 0.537543,-4.12485 -2.487292,-8.74126 -8.693217,-6.69941 -13.120129,-4.68367 -2.160875,1.1847 -4.110491,2.77159 -5.93923,4.48353 -1.929744,1.89625 -3.666939,3.99365 -5.729157,5.72573 -1.47573,1.12726 -3.011209,2.17179 -4.438337,3.37114 -0.807975,0.80573 -1.325024,1.87447 -1.852546,2.90409 -0.273708,0.5107 -0.336022,0.97403 -0.3762285,1.55458 0,0 9.2231095,4.8794 9.2231095,4.8794 v 0 c -0.379076,-0.32084 -0.07149,-0.45462 0.03996,-0.8809 0.439544,-0.90649 0.85692,-1.86134 1.563561,-2.56079 1.409006,-1.20864 2.903128,-2.29288 4.350006,-3.44603 2.008141,-1.79908 3.652897,-3.99742 5.670899,-5.7856 1.825074,-1.56427 3.691906,-3.13871 5.83802,-4.14775 0.796231,-0.32 1.12822,-0.48637 1.953721,-0.68957 0.280711,-0.0692 0.564709,-0.13143 0.851799,-0.15359 0.208499,-0.0161 0.802733,0.16134 0.625985,0.0398 -7.96244,-5.47116 -11.568641,-4.98381 -7.923089,-5.38538 0.06807,0.0913 0.17334,0.16099 0.204001,0.27362 0.228296,0.83888 -0.290365,2.464 -0.390478,3.32182 -0.376619,1.42036 -0.71291,2.89343 -1.522548,4.1078 -0.931491,1.19513 -2.087967,2.1945 -3.276681,3.06762 -2.206618,1.25521 -4.647459,1.76528 -7.089742,2.19134 -2.883294,0.58827 -5.739887,1.27846 -8.585895,2.04325 z" /></g></g></g></g></svg>
