<?xml version="1.0" encoding="UTF-8" standalone="no"?>
<!-- Uploaded to: SVG Repo, www.svgrepo.com, Generator: SVG Repo Mixer Tools -->

<svg
   fill="#000000"
   height="400"
   width="400"
   version="1.1"
   id="Capa_1"
   viewBox="0 0 234.934 234.934"
   xml:space="preserve"
   sodipodi:docname="favicon.svg"
   inkscape:version="1.3.2 (091e20ef0f, 2023-11-25)"
   xmlns:inkscape="http://www.inkscape.org/namespaces/inkscape"
   xmlns:sodipodi="http://sodipodi.sourceforge.net/DTD/sodipodi-0.dtd"
   xmlns="http://www.w3.org/2000/svg"
   xmlns:svg="http://www.w3.org/2000/svg"><defs
   id="defs2"><rect
     x="-130.7932"
     y="8.9466257"
     width="1145.3567"
     height="529.77496"
     id="rect5" /><rect
     x="-103.27963"
     y="-45.266689"
     width="1269.7795"
     height="597.43518"
     id="rect1" /><rect
     x="264.98425"
     y="384.21869"
     width="1159.3032"
     height="297.06427"
     id="rect4" /><rect
     x="421.71609"
     y="408.55914"
     width="65.060593"
     height="20.090412"
     id="rect3" /><rect
     x="238.23767"
     y="408.55493"
     width="422.57193"
     height="95.315414"
     id="rect2" /></defs><sodipodi:namedview
   id="namedview2"
   pagecolor="#ffffff"
   bordercolor="#000000"
   borderopacity="0.25"
   inkscape:showpageshadow="2"
   inkscape:pageopacity="0.0"
   inkscape:pagecheckerboard="0"
   inkscape:deskcolor="#d1d1d1"
   inkscape:zoom="1"
   inkscape:cx="186.5"
   inkscape:cy="172.5"
   inkscape:window-width="1260"
   inkscape:window-height="917"
   inkscape:window-x="20"
   inkscape:window-y="20"
   inkscape:window-maximized="0"
   inkscape:current-layer="Capa_1" />

<g
   id="g1"
   transform="matrix(0.94346118,0,0,0.8665463,76.014735,-116.5444)"
   style="fill:#00ffff;stroke:#00ffff;stroke-opacity:1"><g
     id="g10"
     transform="matrix(0.94892137,0,0,0.94892137,11.982097,15.917566)"
     style="fill:#00ffff;stroke:#00ffff;stroke-opacity:1"><g
       id="g9"
       transform="translate(4.3583224,30.664265)"
       style="fill:#00ffff;stroke:#00ffff;stroke-opacity:1"><g
         id="g2"
         style="fill:#00ffff;fill-opacity:1;stroke:#00ffff;stroke-width:8.81003;stroke-dasharray:none;stroke-opacity:1"
         transform="matrix(0.3348633,-0.26015834,0.2017837,0.39529656,-96.730939,200.8329)">
	<path
   d="M 428.705,53.271 C 402.118,26.684 366.768,12.042 329.168,12.042 c -35.151,0 -68.336,12.798 -94.233,36.188 -25.897,-23.391 -59.083,-36.188 -94.233,-36.188 -37.6,0 -72.95,14.642 -99.537,41.229 -54.885,54.885 -54.885,144.189 0,199.074 l 16.893,16.893 v 181.089 c 0,4.142 3.358,7.5 7.5,7.5 h 338.755 c 4.142,0 7.5,-3.358 7.5,-7.5 V 269.238 l 16.893,-16.893 C 483.589,197.46 483.589,108.156 428.705,53.271 Z M 73.057,442.827 v -15 h 323.755 v 15 z m 345.041,-201.089 -19.09,19.09 c -1.407,1.406 -2.197,3.314 -2.197,5.303 V 412.826 H 73.057 V 266.131 c 0,-1.989 -0.79,-3.897 -2.197,-5.303 L 51.77,241.738 C 2.734,192.702 2.734,112.914 51.77,63.877 75.524,40.123 107.107,27.041 140.701,27.041 c 31.081,0 60.435,11.206 83.466,31.694 l -36.963,36.962 c -2.929,2.929 -2.929,7.678 0,10.606 1.464,1.465 3.384,2.197 5.303,2.197 1.919,0 3.839,-0.732 5.303,-2.197 L 239.883,64.23 c 0.061,-0.061 0.112,-0.126 0.17,-0.188 0.06,-0.057 0.124,-0.107 0.183,-0.166 23.754,-23.754 55.337,-36.836 88.93,-36.836 33.594,0 65.176,13.082 88.931,36.836 49.037,49.038 49.037,128.826 0.001,177.862 z"
   id="path1"
   style="fill:#00ffff;fill-opacity:1;stroke:#00ffff;stroke-width:8.81003;stroke-dasharray:none;stroke-opacity:1" />
	<path
   d="m 374.4499,268.28515 h -43.90862 l 27.27064,-90.24188 c 1.58789,-5.25456 -0.20694,-11.29415 -4.0105,-13.48837 -3.80357,-2.19421 -8.17324,0.28734 -9.76112,5.54191 l -29.67237,98.18834 h -71.12454 v -94.21511 c 0,-5.69451 -3.34093,-10.31116 -7.46187,-10.31116 -4.12094,0 -7.46187,4.61665 -7.46187,10.31116 v 94.21511 h -71.12454 l -29.67237,-98.18834 c -1.58789,-5.25594 -5.95855,-7.73337 -9.76112,-5.54191 -3.80257,2.19422 -5.59839,8.23381 -4.01051,13.48837 l 27.27065,90.24188 H 97.112145 c -4.120942,0 -7.461869,4.61665 -7.461869,10.31116 0,5.69451 3.340927,10.31115 7.461869,10.31115 H 374.4499 c 4.12094,0 7.46187,-4.61664 7.46187,-10.31115 0,-5.69451 -3.34093,-10.31116 -7.46187,-10.31116 z"
   id="path2"
   style="fill:#00ffff;fill-opacity:1;stroke:#00ffff;stroke-width:10.3037;stroke-dasharray:none;stroke-opacity:1" />
</g></g></g></g></svg>
